{"title":"The.Shallows.HDCam.400mb","uid":15154537,"size":432663175,"categoryP":"video","categoryS":"movies","magnet":"?xt=urn:btih:4060ddf005067dfaed575ad3b8cefd44a231c102&amp;dn=The.Shallows.HDCam.400mb&amp;tr=udp%3A%2F%2Ftracker.leechers-paradise.org%3A6969&amp;tr=udp%3A%2F%2Fzer0day.ch%3A1337&amp;tr=udp%3A%2F%2Fopen.demonii.com%3A1337&amp;tr=udp%3A%2F%2Ftracker.coppersurfer.tk%3A6969&amp;tr=udp%3A%2F%2Fexodus.desync.com%3A6969","seeders":1,"leechers":0,"uploader":"PurePowerPunk","files":13,"time":1467283341,"description":"Compressed and color corrected.\r\n \nhttps://postimg.org/gallery/1d7oj26yg/\r\n\r\n^^^^^^^Screens^^^^^^\r\n\r\nFormat                    : MPEG-4\r\nFormat profile            : Base Media / Version 2\r\nCodec ID                  : mp42\r\nFile size                 : 411 MiB\r\nDuration                  : 1h 18mn\r\nOverall bit rate mode     : Variable\r\nOverall bit rate          : 728 Kbps\r\n\r\nVideo\r\n-----\r\nID                        : 1\r\nFormat                    : AVC\r\nFormat/Info               : Advanced Video Codec\r\nFormat profile            :   \r\nFormat settings, CABAC    : Yes\r\nFormat settings, ReFrames : 3 frames\r\nFormat settings, GOP      : M=3, N=33\r\nCodec ID                  : avc1\r\nCodec ID/Info             : Advanced Video Coding\r\nDuration                  : 1h 18mn\r\nSource duration           : 1h 18mn\r\nBit rate                  : 594 Kbps\r\nWidth                     : 720 pixels\r\nHeight                    : 320 pixels\r\nDisplay aspect ratio      : 2.25:1\r\nFrame rate mode           : Variable\r\nFrame rate                : 30.000 fps\r\nMinimum frame rate        : 30.000 fps\r\nMaximum frame rate        : 30.030 fps\r\nStandard                  : NTSC\r\nColor space               : YUV\r\nChroma subsampling        : 4:2:0\r\nBit depth                 : 8 bits\r\nScan type                 : Progressive\r\nBits/(Pixel*Frame)        : 0.086\r\nStream size               : 335 MiB (82%)\r\nSource stream size        : 335 MiB (82%)\r\nLanguage                  : English\r\n\r\nAudio\r\n-----\r\nID                        : 2\r\nFormat                    : AAC\r\nFormat/Info               : Advanced Audio Codec\r\nFormat profile            : LC\r\nCodec ID                  : 40\r\nDuration                  : 1h 18mn\r\nSource duration           : 1h 18mn\r\nBit rate mode             : Variable\r\nBit rate                  : 125 Kbps\r\nMaximum bit rate          : 213 Kbps\r\nChannel count             : 2 channels\r\nChannel positions         : Front: L R\r\nSampling rate             : 48.0 KHz\r\nCompression mode          : Lossy\r\nStream size               : 70.8 MiB (17%)\r\nSource stream size        : 70.8 MiB (17%)\r\nLanguage                  : English","torrent":{"xt":"urn:btih:4060ddf005067dfaed575ad3b8cefd44a231c102","amp;dn":"The.Shallows.HDCam.400mb","amp;tr":["udp%3A%2F%2Ftracker.leechers-paradise.org%3A6969","udp%3A%2F%2Fzer0day.ch%3A1337","udp%3A%2F%2Fopen.demonii.com%3A1337","udp%3A%2F%2Ftracker.coppersurfer.tk%3A6969","udp%3A%2F%2Fexodus.desync.com%3A6969"],"infoHash":"4060ddf005067dfaed575ad3b8cefd44a231c102","infoHashBuffer":{"type":"Buffer","data":[64,96,221,240,5,6,125,250,237,87,90,211,184,206,253,68,162,49,193,2]},"announce":[],"urlList":[]}}